<?xml version="1.0" encoding="UTF-8" standalone="no"?>
<!-- Generator: Adobe Illustrator 21.0.0, SVG Export Plug-In . SVG Version: 6.00 Build 0)  -->

<svg
   version="1.1"
   id="Capa_1"
   x="0px"
   y="0px"
   viewBox="0 0 78.899994 55.717606"
   xml:space="preserve"
   sodipodi:docname="dr_ozono.svg"
   inkscape:export-filename="../../../../../../home/edgar/dr_ozono_sm.svg"
   inkscape:export-xdpi="43.889999"
   inkscape:export-ydpi="43.889999"
   width="78.899994"
   height="55.717606"
   xmlns:inkscape="http://www.inkscape.org/namespaces/inkscape"
   xmlns:sodipodi="http://sodipodi.sourceforge.net/DTD/sodipodi-0.dtd"
   xmlns="http://www.w3.org/2000/svg"
   xmlns:svg="http://www.w3.org/2000/svg"><defs
   id="defs203" /><sodipodi:namedview
   id="namedview201"
   pagecolor="#ffffff"
   bordercolor="#666666"
   borderopacity="1.0"
   inkscape:showpageshadow="2"
   inkscape:pageopacity="0.0"
   inkscape:pagecheckerboard="0"
   inkscape:deskcolor="#d1d1d1"
   showgrid="false" />
<style
   type="text/css"
   id="style130">
	.st0{fill:#1176B9;}
	.st1{fill:none;}
	.st2{fill:#2E8FC3;}
	.st3{fill:#275A9A;}
	.st4{fill:#2391C3;}
	.st5{fill:#43A7DE;}
	.st6{fill:#4FA6CC;}
	.st7{fill:#316FB2;}
	.st8{fill:#44A8DD;}
</style>
<g
   id="g523"
   inkscape:export-filename="../../../../../../home/edgar/g523.svg"
   inkscape:export-xdpi="43.889999"
   inkscape:export-ydpi="43.889999"
   transform="translate(-93.1,-2.2823934)"><path
     class="st2"
     d="m 157,27.4 c 0,0 0,0 0,0 -1.5,-8.3 -7.6,-13.2 -15.5,-14.2 v 2.5 c 6.7,1 11.8,5.4 12.9,12.5 v 0 c 0,0 0,0 0,0.1 0.2,1 0.2,2 0.2,3 0,2.6 -0.8,5.1 -2.2,7.4 l 1.8,1.8 c 1.9,-2.9 3.1,-6.1 3.1,-9.3 0,-1.3 -0.1,-2.6 -0.3,-3.8 m -40.1,7.8 0.1,0.8 c 0,-0.3 0,-0.6 -0.1,-0.8"
     id="path172" /><path
     class="st0"
     d="M 148.4,39.2"
     id="path174" /><path
     class="st3"
     d="m 164.2,46 c -2.4,-2.4 -6.1,-2.6 -8.8,-0.8 v 0 l -7,-6.1 c 1.8,-2.3 3,-4.9 3,-7.7 0,-0.8 -0.1,-1.6 -0.2,-2.3 -1,-6.6 -6.1,-10.4 -12.5,-10.6 l -0.2,-6.2 c 0.3,-0.1 0.7,-0.3 1,-0.5 2.9,-1.7 4.1,-4.7 2.6,-7.3 -1.5,-2.6 -5.7,-2.7 -7.9,-1.4 -2.9,1.6 -3.9,4.6 -2.4,7.3 0.7,1.2 2.1,2 3.7,2.2 l 0.2,6 c -7.4,1.1 -14,7.9 -12.8,16.4 0.1,0.5 0.2,1.1 0.3,1.6 1.5,4.9 6.6,8.6 13.8,8.6 3.1,0 6.5,-1.5 9.2,-3.9 l 7,6.2 c 0,0 0,0 0,0 -1.5,2.6 -1.2,6 1,8.2 2.7,2.7 7.3,2.6 9.9,-0.1 2.7,-2.5 2.7,-6.9 0.1,-9.6 M 134.4,9 c -0.8,-1.3 -0.2,-2.9 1.2,-3.7 1.1,-0.6 3.2,-0.6 4,0.7 0.8,1.3 0.2,2.9 -1.3,3.7 -1.5,0.9 -3.3,0.3 -3.9,-0.7 m 27.4,44.2 c -1.4,1.4 -3.9,1.5 -5.3,0 -1.4,-1.4 -1.3,-3.8 0.1,-5.2 1.4,-1.4 3.7,-1.4 5.2,0 1.5,1.4 1.5,3.7 0,5.2"
     id="path176" /><path
     class="st0"
     d="M 148.4,39.2"
     id="path178" /><path
     class="st0"
     d="m 115.5,38.2 c 0,0 0,0.1 0,0.1 z m -0.9,-2.8 c 0,0 0.5,1.5 0.8,2.4 L 114.5,35 c 0,0.1 0,0.2 0.1,0.4"
     id="path180" /><path
     class="st4"
     d="m 146.3,45.2 c -2.9,2 -6.3,3.3 -9.3,3.3 -9.8,0 -16.4,-5.7 -17.4,-12.6 -0.1,-0.4 -0.1,-0.9 -0.1,-1.3 -0.1,-1 0,-2 0.1,-3 0.8,-7.4 6.4,-13.2 13.1,-15.3 v -2.5 c -7.7,2.2 -14.3,8.6 -15.6,17 -0.1,0.4 -0.1,0.9 -0.2,1.3 0,0.6 -0.1,1.2 -0.1,1.8 l -2.3,1 c -0.5,-0.8 -1.1,-1.6 -2,-2.5 -0.6,-0.6 -1.4,-1.2 -2.2,-1.6 -1.6,-0.8 -3.5,-1.2 -5.6,-1.2 -3.2,0 -6.8,2.1 -8.4,4.4 -1.8,2.5 -3.2,5 -3.2,8.3 0,0.5 0,1 0.1,1.5 0.3,2.2 1.3,4 2.9,5.5 2,1.9 4.6,2.8 7.7,2.8 3.2,0 5.9,-1.1 8.1,-3.4 2.2,-2.2 3.3,-4.9 3.7,-8.1 0.1,-0.8 0.1,-1.5 0,-2.3 l 1.6,-0.7 c 1.6,7.4 9.1,13.4 19.8,13.4 3.6,0 7.6,-1.5 11.1,-4 z M 108.6,46 c -1.3,1.4 -2.9,2.1 -4.8,2.1 -1.8,0 -3.3,-0.6 -4.5,-1.7 -1.2,-1.1 -1.8,-2.6 -1.8,-4.3 0,-0.1 0,-0.2 0,-0.3 0.1,-1.9 0.7,-3.6 1.9,-4.9 1.3,-1.4 2.9,-2.1 4.7,-2.1 0.6,0 1.2,0.1 1.7,0.2 1.1,0.3 2.1,0.8 2.9,1.5 1.2,1.1 1.8,2.6 1.8,4.3 0.1,2.1 -0.6,3.8 -1.9,5.2"
     id="path182" /><path
     class="st5"
     d="m 110.3,30.8 c -1.2,1.2 -2.7,2.6 -4.3,4.1 -0.5,-0.1 -1.1,-0.2 -1.7,-0.2 -1.9,0 -3.5,0.7 -4.7,2.1 -1.2,1.3 -1.9,2.9 -1.9,4.9 -1.5,1 -3,1.7 -4.4,2.1 -0.1,-0.5 -0.1,-1 -0.1,-1.5 0,-3.3 1.4,-5.7 3.2,-8.3 1.7,-2.3 5.2,-4.4 8.4,-4.4 2,0 3.9,0.4 5.5,1.2"
     id="path184" /><path
     class="st5"
     d="m 132.6,13.8 v 2.5 c -6.7,2.1 -12.3,7.9 -13.1,15.3 L 117,30.8 c 1.3,-8.4 7.9,-14.8 15.6,-17"
     id="path186" /><path
     class="st5"
     d="m 157,27.3 -1.6,0.6 -1,0.4 c 0,0 0,0 0,-0.1 v 0 c -1.1,-7.1 -6.3,-11.5 -12.9,-12.5 v -2.5 c 7.9,1 14,6 15.5,14.1"
     id="path188" /><path
     class="st6"
     d="m 119.5,31.6 c -0.1,1 -0.1,2 -0.1,3 l -2.6,-2.5 c 0,-0.4 0.1,-0.9 0.2,-1.3 1.3,-8.4 7.9,-14.8 15.6,-17 v 2.5 c -6.7,2.1 -12.2,7.9 -13.1,15.3"
     id="path190" /><path
     class="st7"
     d="m 138.7,18.6 -0.2,-6.2 c 0.3,-0.1 0.7,-0.3 1,-0.5 2.9,-1.7 4.1,-4.7 2.6,-7.3 -1.5,-2.6 -5.7,-2.7 -7.9,-1.4 -2.9,1.6 -3.9,4.6 -2.4,7.3 0.7,1.2 2.1,2 3.7,2.2 l 0.2,6 c -7.4,1.1 -14,7.9 -12.8,16.4 0.1,0.5 0.2,1.1 0.3,1.6 1.5,-1.6 5.5,-4.8 14.2,-5.4 C 143,31 147.7,30 151.2,29.1 150.3,22.6 145.1,18.8 138.7,18.6 M 134.4,9 c -0.8,-1.3 -0.2,-2.9 1.2,-3.7 1.1,-0.6 3.2,-0.6 4,0.7 0.8,1.3 0.2,2.9 -1.3,3.7 -1.5,0.9 -3.3,0.3 -3.9,-0.7"
     id="path192" /><path
     class="st8"
     d="m 157,27.4 c -0.2,0.1 -0.8,0.3 -1.6,0.6 -0.3,0.1 -0.6,0.2 -1,0.3 v 0 c -1.1,-7.1 -6.3,-11.5 -12.9,-12.5 v -2.5 c 7.9,0.9 14,5.9 15.5,14.1 0,0 0,0 0,0"
     id="path194" /><path
     class="st3"
     d="m 172,55.5 c 0,1.4 -1.1,2.5 -2.5,2.5 -1.4,0 -2.5,-1.1 -2.5,-2.5 0,-1.3 1.1,-2.4 2.5,-2.4 1.4,0 2.5,1 2.5,2.4 m -4.4,0 c 0,1.1 0.8,1.9 1.9,1.9 1.1,0 1.8,-0.9 1.8,-1.9 0,-1.1 -0.8,-2 -1.9,-2 -1,0.1 -1.8,0.9 -1.8,2 m 1.5,1.3 h -0.6 v -2.4 c 0.2,0 0.5,-0.1 0.9,-0.1 0.5,0 0.7,0.1 0.8,0.2 0.1,0.1 0.2,0.3 0.2,0.5 0,0.3 -0.2,0.5 -0.5,0.6 v 0 c 0.2,0.1 0.4,0.3 0.4,0.6 0.1,0.4 0.1,0.5 0.2,0.6 h -0.6 c -0.1,-0.1 -0.1,-0.3 -0.2,-0.6 0,-0.3 -0.2,-0.4 -0.5,-0.4 h -0.3 v 1 z m 0,-1.4 h 0.3 c 0.3,0 0.6,-0.1 0.6,-0.4 0,-0.2 -0.2,-0.4 -0.5,-0.4 -0.1,0 -0.3,0 -0.3,0 v 0.8 z"
     id="path196" /></g>
</svg>
