<?xml version="1.0" encoding="utf-8"?>
<!-- Generator: Adobe Illustrator 21.0.0, SVG Export Plug-In . SVG Version: 6.00 Build 0)  -->
<svg version="1.1" id="Capa_1" xmlns="http://www.w3.org/2000/svg" xmlns:xlink="http://www.w3.org/1999/xlink" x="0px" y="0px"
	 viewBox="0 0 175 61" style="enable-background:new 0 0 175 61;" xml:space="preserve">
<style type="text/css">
	.st0{fill:#1176B9;}
	.st1{fill:none;}
	.st2{fill:#2E8FC3;}
	.st3{fill:#275A9A;}
	.st4{fill:#2391C3;}
	.st5{fill:#43A7DE;}
	.st6{fill:#4FA6CC;}
	.st7{fill:#316FB2;}
	.st8{fill:#44A8DD;}
</style>
<g>
	<path class="st0" d="M6.4,19h3.7c1.3,0,2.4,0.3,3.1,1c0.7,0.7,1.1,1.7,1.1,2.9c0,0.9-0.2,1.8-0.6,2.6c-0.4,0.8-1.1,1.5-1.9,2
		c-0.9,0.5-1.9,0.8-3,0.8H4.6L6.4,19z M8.7,26.6c1,0,1.8-0.3,2.5-1c0.7-0.7,1-1.5,1-2.5c0-0.7-0.2-1.3-0.7-1.7
		c-0.4-0.4-1-0.6-1.8-0.6H8.1l-1.1,5.9H8.7z"/>
	<path class="st1" d="M6.4,19h3.7c1.3,0,2.4,0.3,3.1,1c0.7,0.7,1.1,1.7,1.1,2.9c0,0.9-0.2,1.8-0.6,2.6c-0.4,0.8-1.1,1.5-1.9,2
		c-0.9,0.5-1.9,0.8-3,0.8H4.6L6.4,19z M8.7,26.6c1,0,1.8-0.3,2.5-1c0.7-0.7,1-1.5,1-2.5c0-0.7-0.2-1.3-0.7-1.7
		c-0.4-0.4-1-0.6-1.8-0.6H8.1l-1.1,5.9H8.7z"/>
	<path class="st0" d="M16.8,20.3c1-1,2.2-1.5,3.6-1.5c1.4,0,2.6,0.4,3.5,1.2c0.9,0.8,1.4,1.9,1.4,3.2c0,1.5-0.5,2.7-1.5,3.7
		c-1,1-2.2,1.5-3.6,1.5c-1.4,0-2.6-0.4-3.5-1.3c-0.9-0.8-1.4-1.9-1.4-3.2C15.4,22.6,15.9,21.3,16.8,20.3 M18.3,21.6
		c-0.6,0.6-0.9,1.4-0.9,2.3c0,0.8,0.3,1.4,0.8,1.9c0.5,0.5,1.2,0.8,2,0.8c0.9,0,1.6-0.3,2.2-0.9c0.6-0.6,0.9-1.4,0.9-2.3
		c0-0.8-0.3-1.4-0.8-2c-0.5-0.5-1.2-0.8-2.1-0.8S18.9,21,18.3,21.6"/>
	<path class="st1" d="M16.8,20.3c1-1,2.2-1.5,3.6-1.5c1.4,0,2.6,0.4,3.5,1.2c0.9,0.8,1.4,1.9,1.4,3.2c0,1.5-0.5,2.7-1.5,3.7
		c-1,1-2.2,1.5-3.6,1.5c-1.4,0-2.6-0.4-3.5-1.3c-0.9-0.8-1.4-1.9-1.4-3.2C15.4,22.6,15.9,21.3,16.8,20.3z M18.3,21.6
		c-0.6,0.6-0.9,1.4-0.9,2.3c0,0.8,0.3,1.4,0.8,1.9c0.5,0.5,1.2,0.8,2,0.8c0.9,0,1.6-0.3,2.2-0.9c0.6-0.6,0.9-1.4,0.9-2.3
		c0-0.8-0.3-1.4-0.8-2c-0.5-0.5-1.2-0.8-2.1-0.8S18.9,21,18.3,21.6z"/>
	<path class="st0" d="M34.4,27.4c-0.9,0.7-2,1.1-3.3,1.1c-1.4,0-2.5-0.4-3.3-1.3c-0.9-0.9-1.3-2-1.3-3.3c0-1.4,0.5-2.6,1.5-3.6
		c1-1,2.2-1.5,3.6-1.5c1.5,0,2.7,0.5,3.6,1.4l-1.4,1.3c-0.6-0.6-1.4-0.8-2.2-0.8c-0.9,0-1.6,0.3-2.2,0.9c-0.6,0.6-0.9,1.4-0.9,2.3
		c0,0.8,0.3,1.4,0.8,1.9c0.5,0.5,1.2,0.8,2,0.8c0.8,0,1.4-0.2,2-0.7L34.4,27.4z"/>
	<path class="st1" d="M34.4,27.4c-0.9,0.7-2,1.1-3.3,1.1c-1.4,0-2.5-0.4-3.3-1.3c-0.9-0.9-1.3-2-1.3-3.3c0-1.4,0.5-2.6,1.5-3.6
		c1-1,2.2-1.5,3.6-1.5c1.5,0,2.7,0.5,3.6,1.4l-1.4,1.3c-0.6-0.6-1.4-0.8-2.2-0.8c-0.9,0-1.6,0.3-2.2,0.9c-0.6,0.6-0.9,1.4-0.9,2.3
		c0,0.8,0.3,1.4,0.8,1.9c0.5,0.5,1.2,0.8,2,0.8c0.8,0,1.4-0.2,2-0.7L34.4,27.4z"/>
	<polygon class="st0" points="39,20.7 35.8,20.7 36.2,19 44.6,19 44.2,20.7 41.1,20.7 39.6,28.3 37.5,28.3 	"/>
	<polygon class="st1" points="39,20.7 35.8,20.7 36.2,19 44.6,19 44.2,20.7 41.1,20.7 39.6,28.3 37.5,28.3 	"/>
	<path class="st0" d="M46,20.3c1-1,2.2-1.5,3.6-1.5c1.4,0,2.6,0.4,3.5,1.2c0.9,0.8,1.4,1.9,1.4,3.2c0,1.5-0.5,2.7-1.5,3.7
		c-1,1-2.2,1.5-3.6,1.5c-1.4,0-2.6-0.4-3.5-1.3c-0.9-0.8-1.4-1.9-1.4-3.2C44.5,22.6,45,21.3,46,20.3 M47.4,21.6
		c-0.6,0.6-0.9,1.4-0.9,2.3c0,0.8,0.3,1.4,0.8,1.9c0.5,0.5,1.2,0.8,2,0.8c0.9,0,1.6-0.3,2.2-0.9c0.6-0.6,0.9-1.4,0.9-2.3
		c0-0.8-0.3-1.4-0.8-2c-0.5-0.5-1.2-0.8-2.1-0.8C48.7,20.7,48,21,47.4,21.6"/>
	<path class="st1" d="M46,20.3c1-1,2.2-1.5,3.6-1.5c1.4,0,2.6,0.4,3.5,1.2c0.9,0.8,1.4,1.9,1.4,3.2c0,1.5-0.5,2.7-1.5,3.7
		c-1,1-2.2,1.5-3.6,1.5c-1.4,0-2.6-0.4-3.5-1.3c-0.9-0.8-1.4-1.9-1.4-3.2C44.5,22.6,45,21.3,46,20.3z M47.4,21.6
		c-0.6,0.6-0.9,1.4-0.9,2.3c0,0.8,0.3,1.4,0.8,1.9c0.5,0.5,1.2,0.8,2,0.8c0.9,0,1.6-0.3,2.2-0.9c0.6-0.6,0.9-1.4,0.9-2.3
		c0-0.8-0.3-1.4-0.8-2c-0.5-0.5-1.2-0.8-2.1-0.8C48.7,20.7,48,21,47.4,21.6z"/>
	<path class="st0" d="M57,19h3.7c1.2,0,2.1,0.3,2.7,0.8c0.6,0.5,1,1.3,1,2.1c0,0.8-0.2,1.5-0.6,2.2c-0.4,0.7-1.1,1.2-1.9,1.6
		l1.4,2.6h-2.3l-1.1-2.2c-0.3,0-0.8,0-1.4,0h-0.9l-0.4,2.1h-2L57,19z M59.7,24.5c0.7,0,1.3-0.2,1.8-0.7c0.5-0.4,0.7-1,0.7-1.6
		c0-0.4-0.1-0.8-0.4-1.1c-0.3-0.3-0.7-0.4-1.2-0.4h-1.9L58,24.5H59.7z"/>
	<path class="st1" d="M57,19h3.7c1.2,0,2.1,0.3,2.7,0.8c0.6,0.5,1,1.3,1,2.1c0,0.8-0.2,1.5-0.6,2.2c-0.4,0.7-1.1,1.2-1.9,1.6
		l1.4,2.6h-2.3l-1.1-2.2c-0.3,0-0.8,0-1.4,0h-0.9l-0.4,2.1h-2L57,19z M59.7,24.5c0.7,0,1.3-0.2,1.8-0.7c0.5-0.4,0.7-1,0.7-1.6
		c0-0.4-0.1-0.8-0.4-1.1c-0.3-0.3-0.7-0.4-1.2-0.4h-1.9L58,24.5H59.7z"/>
	<path class="st0" d="M5,34c2.2-2.2,4.8-3.4,8.1-3.4c3.2,0,5.8,0.9,7.8,2.7c2,1.8,3,4.2,3,7.1c0,3.2-1.1,6-3.3,8.2
		c-2.2,2.2-4.9,3.4-8.1,3.4c-3.1,0-5.7-0.9-7.7-2.8c-2-1.9-3-4.2-3-7C1.7,39,2.8,36.3,5,34 M8.2,36.8c-1.3,1.4-1.9,3.1-1.9,5.2
		c0,1.7,0.6,3.2,1.8,4.3c1.2,1.1,2.7,1.7,4.5,1.7c1.9,0,3.5-0.7,4.8-2.1c1.3-1.4,2-3.1,2-5.2c0-1.8-0.6-3.2-1.8-4.4
		c-1.2-1.1-2.7-1.7-4.6-1.7C11,34.8,9.5,35.4,8.2,36.8"/>
	<path class="st1" d="M5,34c2.2-2.2,4.8-3.4,8.1-3.4c3.2,0,5.8,0.9,7.8,2.7c2,1.8,3,4.2,3,7.1c0,3.2-1.1,6-3.3,8.2
		c-2.2,2.2-4.9,3.4-8.1,3.4c-3.1,0-5.7-0.9-7.7-2.8c-2-1.9-3-4.2-3-7C1.7,39,2.8,36.3,5,34z M8.2,36.8c-1.3,1.4-1.9,3.1-1.9,5.2
		c0,1.7,0.6,3.2,1.8,4.3c1.2,1.1,2.7,1.7,4.5,1.7c1.9,0,3.5-0.7,4.8-2.1c1.3-1.4,2-3.1,2-5.2c0-1.8-0.6-3.2-1.8-4.4
		c-1.2-1.1-2.7-1.7-4.6-1.7C11,34.8,9.5,35.4,8.2,36.8z"/>
	<polygon class="st0" points="24.9,48.5 38.2,34.9 28,34.9 28.7,31 45.3,31 44.7,34.4 31.4,47.9 42.3,47.9 41.6,51.8 24.2,51.8 	"/>
	<polygon class="st1" points="24.9,48.5 38.2,34.9 28,34.9 28.7,31 45.3,31 44.7,34.4 31.4,47.9 42.3,47.9 41.6,51.8 24.2,51.8 	"/>
	<path class="st0" d="M48.7,34c2.2-2.2,4.8-3.4,8.1-3.4c3.2,0,5.8,0.9,7.8,2.7c2,1.8,3,4.2,3,7.1c0,3.2-1.1,6-3.3,8.2
		c-2.2,2.2-4.9,3.4-8.1,3.4c-3.1,0-5.7-0.9-7.7-2.8c-2-1.9-3-4.2-3-7C45.5,39,46.6,36.3,48.7,34 M51.9,36.8C50.6,38.2,50,39.9,50,42
		c0,1.7,0.6,3.2,1.8,4.3c1.2,1.1,2.7,1.7,4.5,1.7c1.9,0,3.5-0.7,4.8-2.1c1.3-1.4,2-3.1,2-5.2c0-1.8-0.6-3.2-1.8-4.4
		c-1.2-1.1-2.7-1.7-4.6-1.7C54.8,34.8,53.2,35.4,51.9,36.8"/>
	<path class="st1" d="M48.7,34c2.2-2.2,4.8-3.4,8.1-3.4c3.2,0,5.8,0.9,7.8,2.7c2,1.8,3,4.2,3,7.1c0,3.2-1.1,6-3.3,8.2
		c-2.2,2.2-4.9,3.4-8.1,3.4c-3.1,0-5.7-0.9-7.7-2.8c-2-1.9-3-4.2-3-7C45.5,39,46.6,36.3,48.7,34z M51.9,36.8
		C50.6,38.2,50,39.9,50,42c0,1.7,0.6,3.2,1.8,4.3c1.2,1.1,2.7,1.7,4.5,1.7c1.9,0,3.5-0.7,4.8-2.1c1.3-1.4,2-3.1,2-5.2
		c0-1.8-0.6-3.2-1.8-4.4c-1.2-1.1-2.7-1.7-4.6-1.7C54.8,34.8,53.2,35.4,51.9,36.8z"/>
	<polygon class="st0" points="73.1,31 77.8,31 84.4,44.9 87.1,31 91.5,31 87.5,51.8 82.8,51.8 76.3,38 73.6,51.8 69.1,51.8 	"/>
	<polygon class="st1" points="73.1,31 77.8,31 84.4,44.9 87.1,31 91.5,31 87.5,51.8 82.8,51.8 76.3,38 73.6,51.8 69.1,51.8 	"/>
	<path class="st2" d="M157,27.4C157,27.4,157,27.4,157,27.4c-1.5-8.3-7.6-13.2-15.5-14.2v2.5c6.7,1,11.8,5.4,12.9,12.5h0
		c0,0,0,0,0,0.1c0.2,1,0.2,2,0.2,3c0,2.6-0.8,5.1-2.2,7.4l1.8,1.8c1.9-2.9,3.1-6.1,3.1-9.3C157.3,29.9,157.2,28.6,157,27.4
		 M116.9,35.2L117,36C117,35.7,117,35.4,116.9,35.2"/>
	<path class="st0" d="M148.4,39.2"/>
	<path class="st3" d="M164.2,46c-2.4-2.4-6.1-2.6-8.8-0.8l0,0l-7-6.1c1.8-2.3,3-4.9,3-7.7c0-0.8-0.1-1.6-0.2-2.3
		c-1-6.6-6.1-10.4-12.5-10.6l-0.2-6.2c0.3-0.1,0.7-0.3,1-0.5c2.9-1.7,4.1-4.7,2.6-7.3c-1.5-2.6-5.7-2.7-7.9-1.4
		c-2.9,1.6-3.9,4.6-2.4,7.3c0.7,1.2,2.1,2,3.7,2.2l0.2,6c-7.4,1.1-14,7.9-12.8,16.4c0.1,0.5,0.2,1.1,0.3,1.6
		c1.5,4.9,6.6,8.6,13.8,8.6c3.1,0,6.5-1.5,9.2-3.9l7,6.2c0,0,0,0,0,0c-1.5,2.6-1.2,6,1,8.2c2.7,2.7,7.3,2.6,9.9-0.1
		C166.8,53.1,166.8,48.7,164.2,46 M134.4,9c-0.8-1.3-0.2-2.9,1.2-3.7c1.1-0.6,3.2-0.6,4,0.7c0.8,1.3,0.2,2.9-1.3,3.7
		C136.8,10.6,135,10,134.4,9 M161.8,53.2c-1.4,1.4-3.9,1.5-5.3,0c-1.4-1.4-1.3-3.8,0.1-5.2c1.4-1.4,3.7-1.4,5.2,0
		C163.3,49.4,163.3,51.7,161.8,53.2"/>
	<path class="st0" d="M148.4,39.2"/>
	<path class="st0" d="M115.5,38.2c0,0,0,0.1,0,0.1L115.5,38.2z M114.6,35.4c0,0,0.5,1.5,0.8,2.4l-0.9-2.8
		C114.5,35.1,114.5,35.2,114.6,35.4"/>
	<path class="st4" d="M146.3,45.2c-2.9,2-6.3,3.3-9.3,3.3c-9.8,0-16.4-5.7-17.4-12.6c-0.1-0.4-0.1-0.9-0.1-1.3c-0.1-1,0-2,0.1-3
		c0.8-7.4,6.4-13.2,13.1-15.3v-2.5c-7.7,2.2-14.3,8.6-15.6,17c-0.1,0.4-0.1,0.9-0.2,1.3c0,0.6-0.1,1.2-0.1,1.8l-2.3,1
		c-0.5-0.8-1.1-1.6-2-2.5c-0.6-0.6-1.4-1.2-2.2-1.6c-1.6-0.8-3.5-1.2-5.6-1.2c-3.2,0-6.8,2.1-8.4,4.4c-1.8,2.5-3.2,5-3.2,8.3
		c0,0.5,0,1,0.1,1.5c0.3,2.2,1.3,4,2.9,5.5c2,1.9,4.6,2.8,7.7,2.8c3.2,0,5.9-1.1,8.1-3.4c2.2-2.2,3.3-4.9,3.7-8.1
		c0.1-0.8,0.1-1.5,0-2.3l1.6-0.7C118.8,45,126.3,51,137,51c3.6,0,7.6-1.5,11.1-4L146.3,45.2z M108.6,46c-1.3,1.4-2.9,2.1-4.8,2.1
		c-1.8,0-3.3-0.6-4.5-1.7c-1.2-1.1-1.8-2.6-1.8-4.3c0-0.1,0-0.2,0-0.3c0.1-1.9,0.7-3.6,1.9-4.9c1.3-1.4,2.9-2.1,4.7-2.1
		c0.6,0,1.2,0.1,1.7,0.2c1.1,0.3,2.1,0.8,2.9,1.5c1.2,1.1,1.8,2.6,1.8,4.3C110.6,42.9,109.9,44.6,108.6,46"/>
	<path class="st5" d="M110.3,30.8c-1.2,1.2-2.7,2.6-4.3,4.1c-0.5-0.1-1.1-0.2-1.7-0.2c-1.9,0-3.5,0.7-4.7,2.1
		c-1.2,1.3-1.9,2.9-1.9,4.9c-1.5,1-3,1.7-4.4,2.1c-0.1-0.5-0.1-1-0.1-1.5c0-3.3,1.4-5.7,3.2-8.3c1.7-2.3,5.2-4.4,8.4-4.4
		C106.8,29.6,108.7,30,110.3,30.8"/>
	<path class="st5" d="M132.6,13.8v2.5c-6.7,2.1-12.3,7.9-13.1,15.3l-2.5-0.8C118.3,22.4,124.9,16,132.6,13.8"/>
	<path class="st5" d="M157,27.3l-1.6,0.6l-1,0.4c0,0,0,0,0-0.1h0c-1.1-7.1-6.3-11.5-12.9-12.5v-2.5C149.4,14.2,155.5,19.2,157,27.3"
		/>
	<path class="st6" d="M119.5,31.6c-0.1,1-0.1,2-0.1,3l-2.6-2.5c0-0.4,0.1-0.9,0.2-1.3c1.3-8.4,7.9-14.8,15.6-17v2.5
		C125.9,18.4,120.4,24.2,119.5,31.6"/>
	<path class="st7" d="M138.7,18.6l-0.2-6.2c0.3-0.1,0.7-0.3,1-0.5c2.9-1.7,4.1-4.7,2.6-7.3c-1.5-2.6-5.7-2.7-7.9-1.4
		c-2.9,1.6-3.9,4.6-2.4,7.3c0.7,1.2,2.1,2,3.7,2.2l0.2,6c-7.4,1.1-14,7.9-12.8,16.4c0.1,0.5,0.2,1.1,0.3,1.6
		c1.5-1.6,5.5-4.8,14.2-5.4c5.6-0.3,10.3-1.3,13.8-2.2C150.3,22.6,145.1,18.8,138.7,18.6 M134.4,9c-0.8-1.3-0.2-2.9,1.2-3.7
		c1.1-0.6,3.2-0.6,4,0.7c0.8,1.3,0.2,2.9-1.3,3.7C136.8,10.6,135,10,134.4,9"/>
	<path class="st8" d="M157,27.4c-0.2,0.1-0.8,0.3-1.6,0.6c-0.3,0.1-0.6,0.2-1,0.3h0c-1.1-7.1-6.3-11.5-12.9-12.5v-2.5
		C149.4,14.2,155.5,19.2,157,27.4C157,27.4,157,27.4,157,27.4"/>
	<path class="st3" d="M172,55.5c0,1.4-1.1,2.5-2.5,2.5c-1.4,0-2.5-1.1-2.5-2.5c0-1.3,1.1-2.4,2.5-2.4C170.9,53.1,172,54.1,172,55.5
		 M167.6,55.5c0,1.1,0.8,1.9,1.9,1.9c1.1,0,1.8-0.9,1.8-1.9c0-1.1-0.8-2-1.9-2C168.4,53.6,167.6,54.4,167.6,55.5 M169.1,56.8h-0.6
		v-2.4c0.2,0,0.5-0.1,0.9-0.1c0.5,0,0.7,0.1,0.8,0.2c0.1,0.1,0.2,0.3,0.2,0.5c0,0.3-0.2,0.5-0.5,0.6v0c0.2,0.1,0.4,0.3,0.4,0.6
		c0.1,0.4,0.1,0.5,0.2,0.6h-0.6c-0.1-0.1-0.1-0.3-0.2-0.6c0-0.3-0.2-0.4-0.5-0.4h-0.3V56.8z M169.1,55.4h0.3c0.3,0,0.6-0.1,0.6-0.4
		c0-0.2-0.2-0.4-0.5-0.4c-0.1,0-0.3,0-0.3,0V55.4z"/>
</g>
</svg>
